<svg width="257" height="352" viewBox="0 0 257 352" xmlns="http://www.w3.org/2000/svg"><title>body</title><g transform="translate(-13 -14)" fill="none" fill-rule="evenodd"><ellipse fill="#000" cx="137" cy="278" rx="93" ry="27"/><path d="M43.892 329.665c.994.25 1.578.65 1.75 1.203.17.553.184 1.121.038 1.705a3.107 3.107 0 0 1-.836 1.485c-.412.408-1.12.504-2.123.29l-2.495 9.982c-.265 1.064-.711 1.718-1.337 1.962a3.01 3.01 0 0 1-1.866.135c-.514-.128-.93-.47-1.247-1.022-.318-.553-.36-1.293-.13-2.22l2.496-9.982-14.048-3.51-2.482 9.93c-.266 1.064-.712 1.718-1.338 1.962-.626.245-1.23.294-1.813.148-.515-.128-.922-.467-1.222-1.016-.3-.549-.335-1.286-.104-2.212l6.65-26.603c.145-.583.35-1.042.617-1.377.265-.334.57-.568.913-.7.343-.134.695-.192 1.055-.174.36.017.694.064 1.003.141.446.111.776.394.99.849.215.454.224 1.076.027 1.865l-3.126 12.504 14.048 3.51 2.996-11.988c.146-.584.36-1.04.643-1.37.283-.33.588-.564.914-.702a2.34 2.34 0 0 1 1.055-.173c.377.021.72.07 1.029.148.48.12.827.407 1.042.861.214.455.223 1.077.026 1.866l-3.125 12.503zm23.47 18.363c-.007.035-.027.05-.062.044.124.524.097.986-.08 1.385a1.98 1.98 0 0 1-.778.915c-.342.21-.754.308-1.236.296-.483-.013-.978-.207-1.487-.582-.26-.369-.496-.76-.71-1.174a8.969 8.969 0 0 1-.537-1.251c-.8.47-1.644.889-2.533 1.254-.89.366-1.738.496-2.545.391a55.433 55.433 0 0 1-4.137-.667c-1.352-.271-2.562-.949-3.63-2.032-.883-.908-1.506-1.914-1.87-3.018a9.685 9.685 0 0 1-.485-3.395c.04-1.16.251-2.317.632-3.47.38-1.155.874-2.235 1.48-3.242.26-.457.568-.888.925-1.292.358-.405.718-.826 1.082-1.266a13.898 13.898 0 0 1 1.648-1.731 8.653 8.653 0 0 1 1.95-1.303c.507-.234 1.006-.47 1.496-.708s.986-.456 1.487-.656c.35-.154.867-.289 1.55-.403a16.76 16.76 0 0 1 2.191-.21c.776-.027 1.539.026 2.288.156.749.13 1.366.346 1.852.646.5.015.958.22 1.373.616.416.396.685.963.808 1.702a501.421 501.421 0 0 1-1.3 7.15 45.345 45.345 0 0 0-.777 7.24c-.02.32.045.717.196 1.191.15.475.32.945.508 1.408.189.464.357.888.505 1.273.149.384.214.629.195.733zm-6.008-4.761a.617.617 0 0 0 .175-.078c.04-.028.099-.054.175-.077a29.996 29.996 0 0 1 .48-6.619 587.36 587.36 0 0 1 1.158-6.178 5.976 5.976 0 0 0-1.064-.078 8.292 8.292 0 0 0-1.173.092c-.387.058-.738.114-1.052.167a6.291 6.291 0 0 0-.699.147c-1.13.306-2.129.787-2.997 1.443a10.918 10.918 0 0 0-2.258 2.298 14.125 14.125 0 0 0-1.6 2.844 14.537 14.537 0 0 0-.925 3.15c.021.29.06.585.116.882.056.296.094.59.115.881.144.205.294.428.449.67.155.243.322.47.5.68.29.194.582.37.877.53l.886.477c.592.103 1.164.22 1.715.353.552.132 1.121.16 1.709.082a120.06 120.06 0 0 0 1.723-.776 18.21 18.21 0 0 0 1.69-.89zm23.347 2.76c.656-.419 1.272-.576 1.847-.47.575.105 1.016.354 1.325.748.308.393.445.882.41 1.465-.035.584-.335 1.144-.898 1.681-1.312 1.123-2.78 1.854-4.406 2.19-1.626.338-3.189.3-4.688-.113-1.5-.413-2.839-1.19-4.019-2.33-1.18-1.14-1.983-2.591-2.41-4.353a14.152 14.152 0 0 1-.48-3.103 13.38 13.38 0 0 1 .22-3.126c.309-1.672.909-3.318 1.8-4.937.89-1.62 2-2.99 3.33-4.111a10.579 10.579 0 0 1 4.494-2.26c1.667-.386 3.413-.166 5.236.66.91.431 1.723.922 2.44 1.472.716.55 1.383 1.218 2 2.005.318.609.446 1.176.382 1.703-.064.526-.265.938-.604 1.235-.339.298-.77.468-1.29.512-.523.043-1.08-.131-1.674-.523-1.018-1.3-2.057-2.129-3.118-2.489-1.06-.36-2.081-.385-3.062-.077-.982.309-1.888.884-2.72 1.727a10.515 10.515 0 0 0-2.042 2.959 11.824 11.824 0 0 0-1.026 3.615c-.155 1.281-.053 2.496.306 3.643.303 1.034.782 1.858 1.437 2.472.656.614 1.382 1.013 2.18 1.199.796.186 1.644.164 2.545-.066.9-.229 1.729-.672 2.485-1.328zm13.39 4.584c-.094.773-.367 1.346-.821 1.72-.454.374-.937.55-1.45.53-.512-.022-.975-.234-1.388-.637-.412-.404-.643-.997-.69-1.781l2.27-30.147c.191-.659.503-1.15.935-1.472.432-.322.87-.475 1.311-.46.442.016.863.198 1.262.548.4.349.68.866.84 1.552l-1.166 15.497a21.33 21.33 0 0 0 2.583-1.455 29.272 29.272 0 0 0 2.281-1.69 42.722 42.722 0 0 0 2.307-2.033c.783-.74 1.633-1.553 2.551-2.441.637-.448 1.245-.633 1.824-.554.579.079 1.031.308 1.357.687.326.38.485.861.477 1.446-.009.584-.283 1.157-.821 1.72a85.165 85.165 0 0 1-4.007 3.767 28.363 28.363 0 0 1-3.83 2.823 2218.91 2218.91 0 0 0 4.676 6.07c1.47 1.901 3.029 3.925 4.676 6.07.41.669.55 1.291.418 1.866-.132.575-.396 1.016-.791 1.324-.396.307-.884.43-1.464.368-.58-.061-1.132-.395-1.653-1.002a1245.74 1245.74 0 0 1-4.843-6.322 532.393 532.393 0 0 0-4.847-6.269c-.22.09-.43.18-.632.272-.202.091-.413.181-.632.271l-.733 9.732zm25.357 1.13c-.057.812-.312 1.415-.765 1.81-.453.394-.945.584-1.475.57-.495-.014-.95-.212-1.363-.595-.414-.383-.664-.964-.748-1.745.055-3.323.121-6.717.198-10.182.077-3.464.144-6.858.2-10.182.195-.702.492-1.224.89-1.567.4-.343.846-.507 1.34-.494.46.013.889.184 1.287.513.398.33.676.832.834 1.508-.056 3.324-.122 6.718-.199 10.182a1840.21 1840.21 0 0 0-.199 10.182zm-4.089-28.976c.021-.777.287-1.433.797-1.968.51-.534 1.118-.792 1.825-.772.707.02 1.31.31 1.807.872.497.562.735 1.231.714 2.009a2.74 2.74 0 0 1-.822 1.914c-.527.534-1.144.791-1.851.772-.707-.02-1.3-.31-1.78-.871a2.794 2.794 0 0 1-.69-1.956zm30.041 29.177c-.04.814-.281 1.422-.726 1.826-.444.405-.931.605-1.461.603-.495-.003-.954-.191-1.376-.565-.423-.373-.685-.95-.787-1.728.009-1.626.009-3.244 0-4.853-.01-1.609-.01-3.226 0-4.853.006-1.167.02-2.334.045-3.5a21.186 21.186 0 0 0-.22-3.502c-.28-.532-.588-.86-.923-.986-.335-.126-.733-.19-1.192-.192-1.203-.007-2.389.279-3.559.856-1.17.577-2.093 1.376-2.77 2.398a30.663 30.663 0 0 0-.937 1.507c-.232.405-.385.997-.46 1.774l-.03 5.41a275.95 275.95 0 0 0 .025 5.41c-.04.813-.282 1.422-.726 1.826-.444.404-.932.605-1.462.602-.495-.003-.954-.19-1.376-.564-.422-.374-.684-.95-.786-1.728l.026-4.933c.009-1.59.008-3.164 0-4.72-.01-1.556-.01-3.138-.002-4.747l.027-4.96c.18-.706.466-1.234.857-1.586.39-.351.834-.526 1.329-.523.46.002.892.164 1.296.484.405.32.694.817.868 1.49l-.003.424a12.145 12.145 0 0 1 3.486-2.076c1.293-.506 2.594-.755 3.902-.748a7.838 7.838 0 0 1 3.681.921c1.146.608 2.07 1.585 2.77 2.932.244.461.409 1.037.494 1.727.084.69.134 1.415.147 2.175.014.76 0 1.538-.039 2.334-.04.795-.061 1.546-.065 2.253l-.053 9.812zm7.93 11.294c-.479-.44-.773-.924-.883-1.45-.11-.527-.058-.989.156-1.387s.564-.704 1.05-.919c.487-.214 1.07-.23 1.75-.045.47.229.867.433 1.193.615.326.181.651.345.976.49.324.147.657.266.997.358.34.092.741.182 1.205.269a9.53 9.53 0 0 0 2.075.127 9.256 9.256 0 0 0 2.189-.355 6.779 6.779 0 0 0 1.979-.93 4.197 4.197 0 0 0 1.394-1.597c.23-.434.35-.952.361-1.554a28.2 28.2 0 0 0-.014-1.645l-.141-3.445c-.554.306-1.11.56-1.668.759-.558.2-1.134.4-1.727.601-.84.212-1.684.361-2.53.45a9.518 9.518 0 0 1-2.55-.082c-1.851-.243-3.418-.922-4.703-2.037a11.19 11.19 0 0 1-2.951-4.02c-.683-1.564-1.07-3.247-1.162-5.048-.092-1.801.13-3.509.666-5.123a11.36 11.36 0 0 1 2.029-3.587 11.284 11.284 0 0 1 3.13-2.65 10.059 10.059 0 0 1 3.824-1.244c1.373-.163 2.726.03 4.058.577 1.044.452 2.038.96 2.982 1.523.191-.503.477-.878.856-1.123.38-.246.782-.35 1.208-.315.426.035.831.205 1.215.507.384.303.677.751.878 1.345l.925 22.575c.078 1.908-.138 3.553-.647 4.937-.51 1.383-1.555 2.638-3.137 3.764a13.96 13.96 0 0 1-2.127 1.202 8.075 8.075 0 0 1-2.308.679c-1.687.281-3.315.277-4.884-.012-1.14-.201-2.108-.49-2.902-.864s-1.715-.823-2.762-1.346zm13.714-16.38a.855.855 0 0 1 .367-.122l-.391-9.539c-.036.002-.054-.015-.055-.05a17.942 17.942 0 0 0-2.49-1.81 10.098 10.098 0 0 0-2.89-1.208l-2.534.316c-.277.153-.563.306-.857.46-.295.153-.58.306-.857.46-1.693 1.873-2.58 3.75-2.663 5.629-.082 1.879.435 3.928 1.553 6.147.185.205.388.409.609.612.22.203.423.408.609.612 3.46 1.557 6.66 1.054 9.599-1.508zm32.08 2.631c-.536-.003-.993-.096-1.373-.28a2.346 2.346 0 0 1-.893-.715l-.198-.296a18.803 18.803 0 0 1-.28-.526 1.629 1.629 0 0 1-.176-.539l-3-23.624a8.145 8.145 0 0 0-.726.386c-.182.112-.448.19-.799.235-.666.085-1.226-.04-1.678-.375-.453-.335-.712-.765-.779-1.291-.098-.772.265-1.495 1.088-2.17.823-.675 1.825-1.274 3.006-1.799a24.55 24.55 0 0 1 3.764-1.306c1.328-.347 2.43-.576 3.308-.688 2.56-.325 4.894-.193 7 .395 2.106.588 3.934 1.505 5.482 2.752a14.625 14.625 0 0 1 3.762 4.575c.96 1.803 1.571 3.739 1.834 5.808a17.306 17.306 0 0 1-.373 6.33 14.414 14.414 0 0 1-2.853 5.735 13.01 13.01 0 0 1-3.34 2.964 24.872 24.872 0 0 1-4.048 2.011 35.452 35.452 0 0 1-4.37 1.384c-1.485.366-2.938.711-4.359 1.034zm1.759-28.666c-.596.075-1.188.186-1.776.332-.587.146-1.172.31-1.755.49l2.94 23.151a169.83 169.83 0 0 0 3.189-.779 26.34 26.34 0 0 0 3.26-1.055 16.678 16.678 0 0 0 2.912-1.493c.89-.576 1.605-1.255 2.147-2.037a12.837 12.837 0 0 0 2.024-4.48c.383-1.618.472-3.233.267-4.846a11.095 11.095 0 0 0-1.277-3.955 10.055 10.055 0 0 0-2.7-3.159c-1.127-.873-2.465-1.514-4.014-1.923-1.549-.41-3.288-.491-5.217-.246zm44.458 16.861c.007.035-.007.056-.042.063.304.445.444.885.421 1.322a1.98 1.98 0 0 1-.4 1.132c-.243.318-.593.558-1.048.72-.455.16-.987.156-1.596-.012a10.214 10.214 0 0 1-1.084-.842 8.969 8.969 0 0 1-.948-.977 19.906 19.906 0 0 1-1.917 2.078c-.7.66-1.445 1.085-2.236 1.276a55.433 55.433 0 0 1-4.102.857c-1.36.23-2.732.03-4.117-.599-1.149-.532-2.09-1.248-2.826-2.149a9.685 9.685 0 0 1-1.667-2.997 12.422 12.422 0 0 1-.652-3.467c-.058-1.213.016-2.399.222-3.556.079-.52.212-1.032.402-1.538.189-.505.375-1.028.557-1.568.246-.77.552-1.505.92-2.207a8.653 8.653 0 0 1 1.354-1.914c.39-.4.771-.8 1.144-1.197a22.46 22.46 0 0 1 1.154-1.144c.271-.27.706-.58 1.304-.931a16.76 16.76 0 0 1 1.97-.98 11.105 11.105 0 0 1 2.192-.673c.746-.146 1.4-.166 1.961-.06.472-.164.973-.136 1.503.084.53.221.984.654 1.362 1.3.462 2.36.91 4.74 1.345 7.142a45.345 45.345 0 0 0 1.864 7.04c.096.305.3.652.61 1.042s.637.767.978 1.132c.342.366.651.702.927 1.008.276.306.425.511.445.615zm-7.314-2.297a.617.617 0 0 0 .136-.134.617.617 0 0 1 .136-.135 29.996 29.996 0 0 1-1.92-6.353 587.37 587.37 0 0 1-1.13-6.183 5.976 5.976 0 0 0-1.02.308 8.292 8.292 0 0 0-1.063.505c-.34.193-.648.37-.923.532a6.292 6.292 0 0 0-.6.388c-.945.69-1.706 1.496-2.282 2.42a10.918 10.918 0 0 0-1.286 2.954 14.125 14.125 0 0 0-.476 3.227 14.537 14.537 0 0 0 .263 3.273c.123.264.264.524.423.782.158.257.3.518.423.782.208.14.427.294.659.465.232.17.468.323.71.455.34.078.676.138 1.009.181l.998.13a28.07 28.07 0 0 1 1.728-.285 4.671 4.671 0 0 0 1.625-.534c.452-.45.896-.897 1.331-1.342a18.21 18.21 0 0 0 1.26-1.436zm23.143-23.728c.147-.551.364-.974.652-1.27.288-.295.62-.493.996-.592a1.86 1.86 0 0 1 1.612.287c.493.345.844.911 1.051 1.697a60.651 60.651 0 0 1-.59 8.77c-.408 2.886-.932 5.75-1.571 8.588-.64 2.839-1.355 5.67-2.145 8.494-.79 2.823-1.54 5.664-2.247 8.52-.174.449-.412.795-.713 1.04a2.458 2.458 0 0 1-.914.487 1.885 1.885 0 0 1-1.482-.211c-.475-.277-.803-.757-.984-1.441l-.088-.333a1.644 1.644 0 0 1-.05-.399 185.081 185.081 0 0 1 1.86-7.074 223.145 223.145 0 0 0 1.876-7.024 38.714 38.714 0 0 1-4.58-2.383 29.296 29.296 0 0 1-3.91-2.862 26.435 26.435 0 0 1-3.38-3.55 36.96 36.96 0 0 1-2.972-4.4c-.235-.888-.234-1.61.003-2.167.237-.557.663-.916 1.279-1.079.444-.117.901-.082 1.371.104.47.187.876.583 1.219 1.187a27.987 27.987 0 0 0 2.409 3.615 22.136 22.136 0 0 0 2.74 2.897 25.173 25.173 0 0 0 3.145 2.35c1.12.71 2.327 1.37 3.622 1.979.54-2.52.983-5.033 1.327-7.537.344-2.505.499-5.07.464-7.693z" fill="#E340A4"/><g transform="translate(85 102)" fill="#9EF08A"><path d="M53 3c-11 2 47-26 47 64s1 111 1 111H.995V68.959S.538-15.16 53 3z" stroke="#000" stroke-width="2" stroke-linecap="round"/><ellipse cx="51" cy="177" rx="49" ry="7"/></g><g transform="translate(106 87)"><circle stroke="#000" stroke-linecap="round" fill="#FFF" cx="12" cy="12" r="12"/><circle fill="#000" cx="9" cy="11" r="3"/></g><g transform="matrix(-1 0 0 1 170 87)"><circle stroke="#000" stroke-linecap="round" fill="#FFF" cx="12" cy="12" r="12"/><circle fill="#000" cx="13" cy="15" r="3"/></g><g transform="translate(124 84)"><circle stroke="#000" stroke-linecap="round" fill="#FFF" cx="14" cy="14" r="14"/><circle fill="#000" cx="10" cy="13" r="3"/></g><g transform="translate(113 107)"><circle stroke="#000" stroke-linecap="round" fill="#FFF" cx="14" cy="14" r="14"/><circle fill="#000" cx="14" cy="18" r="3"/></g><g transform="translate(135 107)"><circle stroke="#000" stroke-linecap="round" fill="#FFF" cx="14" cy="14" r="14"/><circle fill="#000" cx="14" cy="18" r="3"/></g><g stroke="#000"><path d="M135.5 196c15.74 0 28.5-13.655 28.5-30.5 0-6.787-1.136-8.261-2-16.5-12.136.239-42.54-.674-55 1-1.522 9.694 0 9.133 0 15.5 0 16.845 12.76 30.5 28.5 30.5z" stroke-width="2" stroke-linecap="round" fill="#FFF"/><path d="M133.5 184c15.74 0 28.5-13.655 28.5-30.5 0-6.787-57-6.367-57 0 0 16.845 12.76 30.5 28.5 30.5z" stroke-linecap="round"/><path d="M155 163l9 5M147 167l11 16M138 171l10 22M128 174l2 21M118 175l-2 13" stroke-linecap="square"/></g><g stroke="#000" stroke-linecap="round"><path d="M149.729 275.182s21.137-15.563 23.369-47.485c2.232-31.922-15.396-52.201-15.396-52.201s12.2 11.88 9.41 51.782c-2.79 39.903-17.383 47.904-17.383 47.904z" stroke-width="3" stroke-linejoin="round" fill="#000"/><path d="M181 173s74 31-1 74c-.65-.732 3 11-8 11-10 0-6-10-6-10s-9 1-9-6c0-11 15-5 15-5s63-27 4-53" stroke-width="2" fill="#9EF08A"/></g><g stroke="#000" stroke-linecap="round"><path d="M106.718 186.116s-14.918 21.597-6.636 52.506c8.282 30.91 31.552 44.345 31.552 44.345s-15.404-7.26-25.757-45.898c-10.352-38.637.841-50.953.841-50.953z" stroke-width="3" stroke-linejoin="round" fill="#000"/><path d="M89.595 173s-74 31 1 74c.65-.732-3 11 8 11 10 0 6-10 6-10s9 1 9-6c0-11-15-5-15-5s-63-27-4-53" stroke-width="2" fill="#9EF08A"/></g><g><path d="M170 142s-8 24-43 32c-23.797 4.958-65-10-88-68 0 0 5-4 11-4 13 10 22 56 68 40h52z" fill="#9EF08A"/><path d="M107 142s-25 18-56-40M170 142s-7 24-42 32c-23.797 4.958-67-10-90-68" stroke="#000" stroke-width="2" stroke-linecap="round"/><g><path fill="#9EF08A" d="M38.294 106.775l12.37-4.997-3.803-17.622-4.733-4.313-10.082 6.66 2.347 14.815z"/><path d="M38.294 106.775s-6.082-.05-8.552-9.578c-.026-.066-.055-.128-.082-.192-1.457-2.806-.626-3.95-6.19-7.12-5.565-3.168-8.166-6.806-8.478-8.781-.313-1.975 1.868-7.383 3.843-7.696 1.975-.313 14.042 11.95 14.042 11.95" stroke="#000" stroke-width="2" stroke-linecap="round" stroke-linejoin="round" fill="#9EF08A"/><path d="M31.371 88.634s2.338-4.42 3.325-4.576c0 0-9.055-18.815.04-25.318 3.794-1.614 8.009 5.819 8.009 5.819s-3.061 12.634 1.672 16.947" stroke="#000" stroke-width="2" stroke-linecap="round" stroke-linejoin="round" fill="#9EF08A"/><path d="M26.665 24.996l8.374-3.142 3.193-1.675 3.455 5.39s8.083 5.13 10.994 10.205c2.91 5.075.053 9.056.053 9.056s10.468-3.928 19.628-4.976 16.593 4.76 16.593 4.76L75.662 56.29 42.32 57.812l-12.406-6.331-1.887-20.309-1.362-6.176z" fill="#FFF"/><path d="M82.728 56.026s1.413-3.873 5.6-5.444c4.187-1.571-18.95-11.042-32.715-4.444M52.155 21.642s3.088-.681 5.6-5.445c2.511-4.763 2.096 18.32-7.114 29.418" stroke="#000" stroke-width="2" stroke-linecap="round" fill="#FFF"/><path d="M41.687 25.57l6.908-8.324s6.764 1.716.475 24.182" stroke="#000" stroke-width="2" stroke-linecap="round" stroke-linejoin="round" fill="#FFF"/><path d="M86.653 47.389l2.302-2.775s-14.553-14.6-43.705 4.456c0 0 .783-17.01-6.914-29.886l-3.297 2.67" stroke="#000" stroke-width="2" stroke-linecap="round" stroke-linejoin="round"/><path d="M23.89 22.693s1.204-1.884 7.485-4.24c2.093-.786 7.591 13.869 7.591 13.869" stroke="#000" stroke-width="2" stroke-linecap="round" fill="#FFF"/><path d="M37.503 46.245s4.238-11.62-17.382-25.959c0 0 3.3 16.435-3.5 42.87-.104.994 11.884 11.303 10.053 19.155 3.455 5.39 10.208 8.111 10.208 8.111s18.737-6.074 36.693 4.862c0 0 5.283-21.566 14.493-32.664 0 0-15.601-23.76-42.346-8.472-6.176 1.361-8.219-7.903-8.219-7.903z" stroke="#000" stroke-width="2" stroke-linecap="round" fill="#319AD3"/><path d="M69.715 81.808l.7.227c-.659 2.028-1.469 3.396-2.43 4.105-.961.709-1.948.9-2.959.57-.817-.265-1.503-.821-2.059-1.668-.556-.848-.698-2.703-.428-5.565l.755-8.012L53.27 82.593 49.596 81.4l14.089-15.041c.305-2.44.326-4.313.062-5.619-.263-1.305-.856-2.108-1.776-2.407-.739-.24-1.47-.172-2.194.202-.724.375-1.316 1.14-1.778 2.295l-.7-.227c.652-1.874 1.524-3.257 2.617-4.15 1.093-.894 2.186-1.17 3.28-.829.7.228 1.269.725 1.707 1.492.44.766.667 1.919.683 3.456.017 1.537-.193 4.632-.63 9.285l-.602 6.55c-.264 2.709-.229 4.586.105 5.63.335 1.046.934 1.716 1.798 2.01 1.452.472 2.605-.274 3.458-2.238z" fill="#041722"/><path d="M25.366 85.19c.68 3.088 7.787 6.851 10.312 7.117 2.525.265 9.94-37.165 10.149-39.154-2.984-.313-6.858-1.726-8.22-7.902-1.988-.21-12.922 36.85-12.241 39.939z" stroke="#000" stroke-width="2" stroke-linecap="round" stroke-linejoin="round" fill="#73BDE5"/><path d="M41.825 97.103s-4.215-7.432 1.086-12.321l2.493-3.433s-2.552-9.72 8.47-10.453c4.938-.782 4.576 3.325 6.19 7.12-5.458 3.9-10.24 5.67-4.88 13.934 1.456 2.807-4.52 9.828-4.52 9.828" stroke="#000" stroke-width="2" stroke-linecap="round" stroke-linejoin="round" fill="#9EF08A"/></g></g></g></svg>